<svg height="100" viewBox="0 0 100 100" width="100" xmlns="http://www.w3.org/2000/svg"><g fill="#8eef97" transform="matrix(7.1428571 0 0 7.1428571 -7.142857 -7.142857)"><path d="m3 1c-1.1046 0-2 .89543-2 2v10c0 1.1046.89543 2 2 2h10c1.1046 0 2-.89543 2-2v-10c0-1.1046-.89543-2-2-2zm0 2h10v10h-10z" fill="#8eef97"/><path d="m8 3.9913469v2l4 .017306v-2z" stroke-width="1.00002"/><path d="m8 6.8492649v2l4 .017306v-2z" stroke-width="1.00002"/><path d="m8 9.974039v2l4 .01731v-2z" stroke-width="1.00002"/><g fill="#8eef97"><path d="m4.9826494 4.0259593a.19653825.19653825 0 0 0 -.1389526.057588l-.7861531.7861532a.19653825.19653825 0 0 0 0 .277905l.7861531.7861534a.19653825.19653825 0 0 0 .1389526.057588h1.5723066a.19653825.19653825 0 0 0 .196537-.1965392v-1.5723105a.19653825.19653825 0 0 0 -.196537-.1965379zm-.1965383.7861524a.1965383.1965383 0 0 1 0 .3930764.1965383.1965383 0 0 1 0-.3930764z" stroke-width=".196538"/><path d="m4.9826494 7.0259594a.19653825.19653825 0 0 0 -.1389526.057588l-.7861531.7861532a.19653825.19653825 0 0 0 0 .277905l.7861531.7861534a.19653825.19653825 0 0 0 .1389526.057588h1.5723066a.19653825.19653825 0 0 0 .196537-.1965392v-1.5723105a.19653825.19653825 0 0 0 -.196537-.1965379zm-.1965383.7861524a.1965383.1965383 0 0 1 0 .3930764.1965383.1965383 0 0 1 0-.3930764z" stroke-width=".196538"/><path d="m4.9826494 10.025957a.19653825.19653825 0 0 0 -.1389525.05759l-.7861531.786154a.19653825.19653825 0 0 0 0 .277905l.7861531.786153a.19653825.19653825 0 0 0 .1389525.05759h1.5723062a.19653825.19653825 0 0 0 .1965378-.196543v-1.572311a.19653825.19653825 0 0 0 -.1965378-.196538zm-.1965382.786153a.1965383.1965383 0 0 1 0 .393076.1965383.1965383 0 0 1 0-.393076z" stroke-width=".196538"/></g><text fill="none" fill-opacity=".909804" stroke="#fff" stroke-linecap="round" stroke-width="1.94827" x="9.132514" y="8.044357"><tspan stroke-width="1.94827" x="9.132514" y="8.044357"/></text></g></svg>