<svg height="16" viewBox="0 0 16 16" width="16" xmlns="http://www.w3.org/2000/svg"><g fill="#fff" transform="matrix(1.0685347 0 0 1.0685347 -1.096555 -.827771)"><path d="m9.2928142 9.3351438h3.6290798l-1.036002 1.5513192 1.786433 1.19167 2.147154-3.2207309c.240695-.3607616.240695-.8309089 0-1.1916705l-1.073577-1.6103657-1.073577-1.6103656-1.786433 1.1916706 1.036002 1.5513189h-2.748251z" stroke-width="1.07358"/><path d="m1.6817703 3.0172053h1.2490187v1.8459522h1.842708v-1.8459522h1.2490186v4.8435969h-1.2490186v-2.0535813h-1.842708v2.0535813h-1.2490187zm3.4399677 0h4.464025v.9440634h-1.6058811v3.8995335h-1.2490186v-3.8995335h-1.6091253zm3.1415005 0h4.4640245v.9440634h-1.605881v3.8995335h-1.2490182v-3.8995335h-1.6091253zm3.5664915 0h2.073047q.924598 0 1.417717.4120139.496363.4087697.496363 1.1679135 0 .762388-.496363 1.174402-.493119.4087697-1.417717.4087697h-.824028v1.6804978h-1.249019zm1.249019.905133v1.3528331h.691015q.363351 0 .561248-.175187.197896-.1784312.197896-.5028517 0-.3244204-.197896-.4996074-.197897-.175187-.561248-.175187z" stroke-dasharray=".011074 1.32883" stroke-linecap="round" stroke-width="1.10736" transform="scale(.65835015 1.5189485)"/></g></svg>