<svg height="16" viewBox="0 0 16 16" width="16" xmlns="http://www.w3.org/2000/svg"><g fill="#fff"><path d="m10.958191 9.3351438h1.963703l-1.036002 1.5513192 1.786433 1.19167 2.147154-3.2207309c.240695-.3607616.240695-.8309089 0-1.1916705l-1.073577-1.6103657-1.073577-1.6103656-1.786433 1.1916706 1.036002 1.5513189h-1.963703z" stroke-width="1.07358" transform="matrix(1.0685347 0 0 1.0685347 -1.096555 -.827771)"/><path d="m.44053176 3.9218661c-.24224687-.0000165-.44083612.1979844-.44081259.4403654v6.9474535c-.00009414.242431.19825976.441305.44081259.441283h9.92520224c.242577.000022.440954-.198831.440837-.441283v-6.9474535c0-.2423763-.19859-.4403819-.440837-.4403654zm1.17491974 1.0554037h7.5726096l-3.7858341 3.3077866zm8.3094703.5267816v4.8867526l-2.7685996-2.4679694zm-9.04355391.0027536 2.78008471 2.4293552-2.78008471 2.4785408zm5.60613361 3.0002675 2.6339081 2.3484535h-7.4094171l2.618728-2.3346643.7805184.682151c.1655224.1445032.4145709.1444938.5801169 0z" stroke-width=".235351"/><path d="m5.0853758 7.6333187c-.0362176-.0179265-.0440398-.0367135-.0470006-.1128954l-.0025-.065229-.035474-.0094c-.066777-.017713-.057346-.021299-.088682.033703-.03104.05448-.046564.070365-.07667.078471-.028357.00764-.039791.00407-.1052946-.032853-.067355-.037959-.088438-.056735-.096644-.08605-.00802-.028604-.00185-.048983.032195-.1067715l.026876-.045607-.035583-.035969-.035583-.035968-.04805.027744c-.059666.034448-.076367.039448-.1049998.031428-.029818-.00835-.045378-.025325-.082276-.089793-.038011-.066417-.043988-.08482-.036537-.112497.00804-.029895.024058-.045464.078444-.076269.045206-.025608.048864-.028826.046076-.040542-.00166-.00699-.00727-.028683-.01244-.048195l-.00942-.03547-.065226-.00253c-.076529-.0029702-.0953268-.0108538-.1130161-.0473963-.00911-.018811-.010495-.031209-.010495-.093717 0-.076326.00468-.09788.026325-.1209007.017329-.018448.042253-.023882.1039358-.022669l.056782.00114.00557-.021641c.00308-.011892.00886-.03339.012885-.047756.00404-.014366.00733-.027228.00733-.028584 0-.00134-.023686-.016288-.052637-.033176-.06016-.035093-.074598-.052405-.075822-.090902-.0006407-.018339.00327-.031608.016472-.056857.074952-.1433101.1053705-.1580114.2052525-.099231l.049843.029338.034865-.034596c.019169-.01903.034859-.036186.034859-.038134 0-.00194-.011314-.023142-.025166-.047105-.013833-.023966-.027735-.052168-.030887-.062675-.00798-.026632.00148-.059481.022833-.079387.020917-.01949.1232866-.077678.1439189-.081804.044572-.00892.074151.012499.1131722.08193.014831.026389.029247.047145.032033.046133.00276-.0009931.024852-.00703.04903-.013373l.043956-.011543.00166-.06689c.00154-.063597.00231-.067771.015299-.084765.02307-.030212.0386-.034502.1248743-.034502.079142 0 .096625.00327.1165953.021874.023256.021661.027381.036887.02724.1007114 0 .032923.00185.061092.0043.062598.00243.00149.021269.00714.041842.012544.020578.00539.040876.011121.045115.012752.00564.00219.014336-.00893.032399-.041286.030559-.054719.049183-.075036.076226-.083138.030426-.00912.048787-.00372.1135321.033436.067718.038848.077291.046948.089028.075319l.00875.02117.032424-.031017.032418-.031017-.014336-.029219c-.013507-.02756-.015195-.029061-.029548-.026438-.038267.007-.082089.00875-.094793.00378-.018125-.00708-.027881-.027277-.039991-.082751-.016037-.073493-.00404-.09309.066162-.1082615l.039952-.00863.00166-.034413.00166-.034413-.020264-.00597c-.038897-.011458-.067988-.026383-.076361-.039156-.01129-.017221-.010219-.045447.00327-.086474.015715-.047836.023039-.060521.039997-.069291.019847-.010267.038484-.00969.07699.00238.01767.00554.033642.010098.035493.010134.0043.0001276.034634-.048988.034634-.05597 0-.00288-.00994-.01594-.022091-.029061-.02833-.030585-.033648-.041211-.033648-.067255 0-.019918.0025-.023622.038985-.058399.044662-.042543.059428-.050315.086067-.045318.014247.00268.026177.011326.049153.035654l.030342.032129.030002-.015146c.028805-.014544.029893-.015793.027087-.031274-.01833-.1013336-.010194-.1141869.084088-.132857.036864-.00731.046788-.00769.059711-.00233.023468.00971.034288.027387.043758.071433l.00861.040029h.034198.034192l.011266-.034204c.022539-.068454.041977-.079875.104871-.061628.093326.027075.1051779.044757.081743.1219152-.0059.019391-.00988.035907-.00887.036703.01287.010086.05026.033475.053425.03342.00231-.0000456.018574-.012337.036198-.027312.035724-.030372.054386-.036618.078853-.026397.017703.00739.081006.076277.08676.0944.00767.024173-.00219.045486-.035536.077109l-.032343.030629.014997.029706c.00824.016338.01662.029706.018608.029706.00199 0 .021388-.00382.043108-.00849.036837-.00791.040685-.00792.057161-.0000586.024417.011639.034156.030237.045159.086243.014484.07366.00545.088347-.064873.1057123l-.043779.010808v.034156.034156l.034662.010532c.041853.012708.058948.025282.06682.049133.00513.015618.00412.023742-.00778.061997-.017758.057016-.0248.070068-.04286.079406-.020176.010423-.036315.00969-.077483-.00357l-.03496-.011254-.00881.011687c-.00487.00643-.012929.019332-.017966.028677l-.00915.016989.026115.030028c.044266.05089.04445.074953.0008939.1169082-.047215.045497-.059229.053022-.084664.053022-.021333 0-.024954-.00219-.057257-.03422l-.034487-.034255-.025678.013004c-.014115.00715-.027094.01531-.028824.018111-.00173.00278.0007053.023081.00545.04506.00827.038456.00822.040696-.00102.059604-.011711.02398-.024813.03054-.086011.043038-.073755.015067-.088964.00492-.1062046-.070874l-.00822-.036131h-.029996c-.016503 0-.031714-.000596-.033802-.00129-.00212-.0006952-.00976.015837-.017035.036738-.016952.04869-.033122.065898-.061825.06581-.019463-.000056-.08908-.019193-.1093942-.030067-.00628-.00338-.0041.00422.00814.028588.018561.036882.020412.053782.00891.081333-.011133.026647-.019149.033986-.067859.062155-.023884.013803-.046083.02687-.049324.029025-.00436.00288-.00218.01672.00798.052027l.013877.048109.042693.0004478c.076252.0007946.083813.00179.1013601.013626.0094.00634.022283.019218.028625.028618.010784.016.011518.022257.011518.097589 0 .091896-.00372.1063659-.033252.1289071-.018516.014144-.021264.014648-.086157.016252l-.067032.00165-.010495.041842c-.00577.023012-.011687.04507-.013152.049024-.00179.00492.010447.014351.038991.029989.072292.039583.094485.0678.088496.1124934-.0032.023861-.063606.1320825-.084855.1520333-.00802.00752-.024268.016299-.036109.019486-.02792.00752-.046583.00194-.1033207-.030812-.02396-.013833-.04516-.025163-.047109-.025163-.00193 0-.019008.015593-.037922.034647l-.034377.034652.029452.050229c.027152.046307.029452.052636.029452.081029 0 .042899-.012278.057325-.083736.098422-.069169.039775-.0873.046719-.1110178.042512-.0340305-.0060279-.0494065-.0202786-.0819025-.0758717-.0169636-.0290309-.032354-.0526756-.0341847-.0525469-.00185.0001281-.022719.00548-.046411.01188l-.043071.011639-.00289.062873c-.00372.080716-.013063.1002035-.056655.1184212-.013833.00578-.037357.00779-.091033.00779-.06322-.000003-.07508-.00134-.09378-.010604zm.2089037-.4656805c.1759817-.0465302.3099251-.1942506.3377519-.3724996.0078098-.0500321.0024978-.1434295-.0107635-.1900262-.0369218-.1295642-.1309483-.239857-.250811-.2942098-.0999891-.0453382-.2290938-.052945-.3288262-.0193719-.2192971.0738231-.3533714.2996987-.3079562.5188048.020951.1010724.054764.1640011.1268677.2361097.07048.070481.1337768.1050985.2310388.1263539.05843.012767.1430124.010616.2026985-.00516zm.6836774-.9875648c.00442-.012189.00803-.024983.00803-.028419 0-.00342-.011976-.014202-.026607-.023916l-.026613-.017669-.035115.029616c-.030322.025574-.037947.029616-.055874.029616-.011422 0-.025812-.00353-.031981-.00785-.020585-.014425-.064414-.063482-.072589-.081261l-.00808-.017563-.02924.051449-.029248.051449.035455.035456.035455.035456.050158-.0284c.054655-.030947.072902-.036644.1006488-.031433.021796.00407.054309.032035.063804.054841l.00684.016417.00347-.022803c.00193-.012544.00708-.03278.011494-.044976zm.3318091-.1756475c.068859-.016233.144612-.070313.1861604-.1329177.030773-.046356.048447-.1051084.049018-.1629034.0006406-.057539-.00665-.091325-.03013-.1409597-.035865-.07584-.1038912-.1349808-.1857071-.1614362-.082-.026518-.1854561-.014813-.2544504.028793-.095094.060094-.1494912.156448-.1494912.264796 0 .057621.00694.088472.031579.1401363.037498.078658.1145191.1414618.2015294.1643119.036729.00964.1109949.00975.1514962.0001927z" fill="#fff" stroke-width=".011933"/></g></svg>