<svg height="16" viewBox="0 0 16 16" width="16" xmlns="http://www.w3.org/2000/svg"><g fill="#fff"><path d="m10.958191 9.3351438h1.963703l-1.036002 1.5513192 1.786433 1.19167 2.147154-3.2207309c.240695-.3607616.240695-.8309089 0-1.1916705l-1.073577-1.6103657-1.073577-1.6103656-1.786433 1.1916706 1.036002 1.5513189h-1.963703z" stroke-width="1.07358" transform="matrix(1.0685347 0 0 1.0685347 -1.096555 -.827771)"/><path d="m.44053176 3.9218661c-.24224687-.0000165-.44083612.1979844-.44081259.4403654v6.9474535c-.00009414.242431.19825976.441305.44081259.441283h9.92520224c.242577.000022.440954-.198831.440837-.441283v-6.9474535c0-.2423763-.19859-.4403819-.440837-.4403654zm1.17491974 1.0554037h7.5726096l-3.7858341 3.3077866zm8.3094703.5267816v4.8867526l-2.7685996-2.4679694zm-9.04355391.0027536 2.78008471 2.4293552-2.78008471 2.4785408zm5.60613361 3.0002675 2.6339081 2.3484535h-7.4094171l2.618728-2.3346643.7805184.682151c.1655224.1445032.4145709.1444938.5801169 0z" stroke-width=".235351"/></g></svg>