<svg height="16" viewBox="0 0 16 16" width="16" xmlns="http://www.w3.org/2000/svg"><g fill="#fff" transform="matrix(1.0685347 0 0 1.0685347 -1.096555 -.827771)"><path d="m10.413029 9.3351438h2.508865l-1.036002 1.5513192 1.786433 1.19167 2.147154-3.2207309c.240695-.3607616.240695-.8309089 0-1.1916705l-1.073577-1.6103657-1.073577-1.6103656-1.786433 1.1916706 1.036002 1.5513189h-2.508865z" stroke-width="1.07358"/><path d="m4.9902077 3.0448242v.9857935q-.3837108-.171578-.7487039-.2589268-.3649932-.0873488-.6894315-.0873488-.4305048 0-.6363983.1185448-.2058936.1185448-.2058936.3681128 0 .1871759.1372624.2932423.1403819.1029468.5053751.1778172l.5116143.1029468q.7767803.1559799 1.1043383.4741791.3275579.3181991.3275579.9046839 0 .770541-.4585811 1.1480126-.4554616.3743519-1.394461.3743519-.4429832 0-.8890859-.084229-.4461027-.0842293-.8922055-.2495681v-1.0138699q.4461028.2370896.8610095.358754.4180264.1185448.8048567.1185448.3930695 0 .6020827-.1310232.2090132-.1310232.2090132-.374352 0-.2183719-.1435016-.3369167-.140382-.1185448-.5646475-.2121328l-.4648204-.1029468q-.6987902-.1497407-1.0232286-.4772987-.3213188-.3275579-.3213188-.8828467 0-.6956707.4492224-1.0700226.4492223-.3743519 1.2915142-.3743519.3837107 0 .7892587.059272.4055479.056153.8391723.171578zm-.1237146-.1466212h1.5286038l1.0606639 2.4925601 1.066903-2.4925601h1.5254842v4.6575622h-1.1355342v-3.4066027l-1.0731423 2.5112776h-.7611823l-1.0731422-2.5112776v3.4066027h-1.1386539zm4.3185951 0h4.2925688v.9078035h-1.544202v3.7497587h-1.201045v-3.7497587h-1.5473218zm3.4295098 0h1.993424q.889086 0 1.363265.3961892.477299.3930695.477299 1.1230558 0 .7331059-.477299 1.129295-.474179.3930696-1.363265.3930696h-.792378v1.6159526h-1.201046zm1.201046.8703683v1.300873h.664474q.349395 0 .539691-.1684584.190296-.1715779.190296-.4835379 0-.3119599-.190296-.4804183-.190296-.1684584-.539691-.1684584z" stroke-dasharray=".010648 1.27779" stroke-linecap="round" stroke-width="1.06483" transform="scale(.63306421 1.5796186)"/></g></svg>