<svg height="16" viewBox="0 0 16 16" width="16" xmlns="http://www.w3.org/2000/svg"><g fill="#fff" transform="matrix(1.0685347 0 0 1.0685347 -1.096555 -.827771)"><path d="m9.3717424 9.3351438h3.5501516l-1.036002 1.5513192 1.786433 1.19167 2.147154-3.2207309c.240695-.3607616.240695-.8309089 0-1.1916705l-1.073577-1.6103657-1.073577-1.6103656-1.786433 1.1916706 1.036002 1.5513189h-3.5501516z" stroke-width="1.07358"/><path d="m9.8080606 6.4620524c.040561.1200834.016239.1791094-.1461527.3546365l-.1391312.150209.057807.099553c.1088171.1873942.079955.4798261.2714314.4273517.1896739-.051986.2593359-.05279.3440869-.004.07983.045954.09728-.2261827.16067.0009907.06518.2335822.07032.321984.0235.4052012-.04567.081197-.104516.1127599-.308213.1654063l-.1607597.041542-.0008727.1586943-.0008726.158695.168099.045044c.208735.055931.256865.081887.30259.1631691.04761.084648.04447.1568175-.01667.381631-.063.2316122-.09056.1804537-.168472.2253157-.08416.04846-.154187.04747-.3431376-.0048-.1570598-.04346-.1723164.0608-.1921052.092951-.01182.01922-.047503.07973-.07929.134481l-.057799.09954.1390432.150287c.1630817.176354.1873263.235491.1455173.3557641-.021514.06193-.045956.09251-.1845847.231135-.1692852.169285-.227463.206716-.3265353.209759-.079356.0025-.1466858-.04073-.2807931-.180244l-.1234502-.128426-.060362.03563c-.033215.01958-.093713.05441-.1345071.07733-.040807.02291-.07664.04413-.079655.04714-.00301.003.016413.08865.043163.190327.055586.211267.049224.281678-.033445.369779-.039244.0421-.077338.06286-.1626382.08958-.4840872.151613-.5841576.116755-.675315-.235146l-.045446-.175642-.1540511-.000602c-.084714-.000313-.157567.003-.1618802.0073-.00432.0043-.026225.07644-.048665.160295-.022457.08385-.054191.177216-.070506.207513-.041383.07677-.1351968.128654-.2267183.125435-.0896267-.003096-.4457225-.101156-.5006366-.137764-.1186249-.079084-.1367299-.192193-.0692943-.432723.025628-.09142.039699-.169432.031269-.173362-.00833-.0039-.070722-.03951-.1384197-.07907l-.1230646-.07196-.1520531.144662c-.1444627.137642-.155427.145197-.2219334.154071-.1181784.01584-.1621438-.0091-.3534912-.20043-.1755291-.175529-.2070254-.221587-.2100849-.3071116-.00355-.09962.02108-.142542.16295-.283787.073019-.07302.1313779-.139617.1293178-.148357-.00209-.0087-.031322-.06303-.064996-.120606-.033685-.05759-.065976-.115338-.071778-.128348-.00772-.0173-.051584-.01199-.1634185.01971-.1891405.05358-.2755079.05734-.3534543.01533-.0877029-.047265-.1164076-.100005-.1776536-.3259615-.0640323-.2363554-.0673015-.2755419-.0304034-.3645083l.027538-.066357-.1407126-.00312-.1406998-.0031-.03302.096596c-.031154.091089-.030754.098161.00689.1241669.1003923.069353.2014753.162657.2186305.2018572.024494.055903.00134.1223344-.094839.2722307-.1274341.19857-.197516.215417-.3868556.09338l-.1077537-.06947-.080024.07263-.080024.07263.0317.05819c.060838.111692.092276.209302.082518.256204-.013178.06322-.07814.123468-.1990359.184548-.140956.07125-.185327.08313-.2423923.06497-.066784-.02125-.1068387-.06388-.1655016-.1760078-.026896-.05148-.052219-.09701-.056244-.101199-.00924-.0098-.1854726.03184-.200952.04732-.00636.0063-.013308.05742-.015462.113453-.00499.1306648-.016778.1660328-.074539.2237938-.044173.04417-.057933.04685-.2159899.04306-.1934009-.0047-.2433944-.02021-.2913943-.09038-.025691-.03748-.032927-.08319-.029933-.1880988l.00396-.138555-.1001356-.03295c-.096127-.03164-.1013166-.03128-.1294406.0093-.1840957.265402-.23065.275865-.4811641.108166-.097955-.06557-.1208206-.08672-.1375939-.127271-.030493-.07361-.015305-.136793.061381-.255485l.069719-.107856-.07585-.07585-.075837-.075837-.1008524.050864c-.2018046.1018268-.2702488.0840478-.3692746-.0959142-.1469364-.2670409-.1340107-.3325426.0890987-.451696.0560847-.0299381.1015575-.0577347.1010713-.0617399-.0061776-.0509133-.0372272-.185718-.0443683-.1926195-.0052219-.005008-.0685375-.0138491-.1408601-.019705-.1465926-.0118713-.2018456-.0394024-.2334388-.1163387-.0228569-.0556664-.010492-.3488407.0169463-.4017956.0366152-.0706237.1056813-.0960965.2498325-.0921994l.139661.00379.032622-.09915c.017952-.05452.029031-.1027385.024625-.1071438-.00442-.00442-.055914-.038956-.1144334-.076795-.0992567-.0641447-.1078002-.0726687-.1269153-.1266393-.0283297-.0799779-.0086803-.1428129.0911151-.2914422.1312431-.1954979.1838616-.2080263.3783467-.0905767l.1210648.073122.075757-.075756.075757-.075757-.053518-.1002255c-.06464-.1210184-.074673-.1868096-.039236-.2571709.02328-.046007.043537-.061785.1547571-.120252.1658442-.087065.2104041-.1004005.271178-.081055.067876.021612.1020228.059056.1639248.1797764l.052564.1025168.045476-.00637c.025057-.00345.071571-.014194.1034447-.023756l.057967-.017384.00868-.1245122c.014694-.2110401.067653-.2648254.2573011-.2612825.2056337.00382.2489632.01377.3053742.07018.047317.047317.050552.060136.051085.202893l.0005852.1523931.085806.028095c.047187.015446.094044.02614.1041003.023755.01001-.00235.049629-.052762.087861-.1120169.066956-.1036155.072018-.1085084.1344743-.1299212.07916-.027212.1227708-.012708.2862232.095303.1969977.1301623.2082064.1864193.078357.3927438l-.061904.098364.066531.066531c.036605.036605.069047.071627.072112.077826.00313.00626.056763-.013481.1192623-.043698.1455889-.070391.2196211-.072696.2830875-.00884.043043.043293.1550003.2401388.175939.3093147.00647.02139.018441-.0002489.045361-.081453.040629-.1229573.074014-.1645565.1606546-.2001271.083798-.034408.1178507-.032907.2883617.012655.083608.02234.1618101.04261.173772.045024.016021.0033.041915-.032257.097699-.1330798l.075911-.1375077-.0936768-.0957044c-.1673707-.1708729-.1819247-.1898506-.1945973-.2550181-.0068-.034914-.0068-.092036-.0000074-.126969.011574-.059406.023821-.07492.1908954-.2419933.2038181-.2038182.2441497-.2276713.3596544-.2121578.07242.00971.079666.014656.2271417.1550347l.1523585.1449856.116073-.069522c.063827-.038251.1258834-.074047.1378879-.079574.014903-.00693.00868-.055003-.019966-.1529912-.072545-.2481309-.059187-.359935.053224-.4457752.060025-.045813.4340167-.1518743.5253991-.1489922.034475.00108.089972.01768.1232988.036869.078596.045253.1076468.098985.1608185.2974936.022444.083842.044351.1559764.04867.1602956.00426.00426.076738.00758.1609511.00726l.1530998-.0006052.046084-.1767283c.042483-.1629207.05142-.1820635.1143917-.2450354.095154-.095154.1543653-.099915.4040075-.032571.2416369.065203.2972485.090015.3405227.1519514.062099.088862.064598.1545664.013367.3499359-.026766.1020189-.045075.1885904-.04072.1923644.00444.00383.062527.03825.1292658.076605l.1213348.0697226.1458425-.1330503c.1872589-.1707811.2512017-.193286.3883029-.1369932.0434963.0178587.1001344.0655746.2191826.1846216.140211.1402265.1635711.1694694.1844768.2315164zm-1.4961686.5695086c-.4935169-.287107-1.1182169-.2565555-1.5752744.0770675-.1282875.0936459-.3236535.3125757-.3975899.445333-.2054723.3692503-.2415498.8224126-.0962552 1.2088081.1212089.3223249.3906822.6255368.6863416.7722728.6501147.322648 1.4484524.119041 1.833682-.4676437.1777052-.2706349.2422778-.485204.2422905-.8050514.0000008-.3126362-.0636064-.5298005-.2321808-.7926651-.1012601-.1579208-.2936405-.340735-.4610234-.4381122zm-3.7066664.6739952c-.036853.017245-.073207.037627-.080819.045239-.00765.00765-.00494.05805.00597.1120522l.019839.098212.1435752.012187c.123979.010531.149855.01847.1896141.058229.025335.025335.049415.065083.053505.088361.013667.077645.00207.2836595-.019237.3412267l-.021039.056874.1789595-.049258.1789779-.049245-.0000018-.1572657.0000075-.1572749-.174237-.048253c-.1898514-.052585-.2429641-.0804088-.2929471-.1535058-.0393094-.0573731-.0493983-.1915108-.0198806-.2631456l.021242-.051565-.058255.042901c-.032081.023547-.088421.05699-.1252473.074264zm-1.1254935-.3463535c-.1887315-.1167167-.4766824-.1647866-.7076858-.118088-.1710641.0345659-.3405729.1256686-.4700233.2525886-.1290349.1261964-.1877867.2173134-.2458077.3794637-.0886618.2477504-.0689555.5297974.0538313.7699311.1230502.2406849.378479.4441715.6282067.5004897.3441925.0776291.6785464-.0154291.9188522-.2557348.1277991-.127799.1808055-.211639.240772-.3808479.0912876-.2576219.0597536-.567741-.0825457-.8114028-.0600724-.1028537-.2245668-.2677903-.3355707-.3364388z" fill="#fff"/></g></svg>