<svg height="16" viewBox="0 0 16 16" width="16" xmlns="http://www.w3.org/2000/svg"><g fill="#8eef97"><path d="m3 1c-1.1046 0-2 .89543-2 2v10c0 1.1046.89543 2 2 2h10c1.1046 0 2-.89543 2-2v-10c0-1.1046-.89543-2-2-2zm0 2h10v10h-10z" fill="#8eef97"/><path d="m8 3.9913469v2l4 .017306v-2z"/><path d="m4.9826494 4.0259593a.19653825.19653825 0 0 0 -.1389526.057588l-.7861531.7861532a.19653825.19653825 0 0 0 0 .277905l.7861531.7861534a.19653825.19653825 0 0 0 .1389526.057588h1.5723066a.19653825.19653825 0 0 0 .196537-.1965392v-1.5723105a.19653825.19653825 0 0 0 -.196537-.1965379zm-.1965383.7861524a.1965383.1965383 0 0 1 0 .3930764.1965383.1965383 0 0 1 0-.3930764z" fill="#8eef97" stroke-width=".196538"/><path d="m8.0000001 6.991347v2l3.9999999.017306v-2z"/><path d="m4.9826494 7.0259594a.19653825.19653825 0 0 0 -.1389525.057588l-.7861531.7861532a.19653825.19653825 0 0 0 0 .277905l.7861531.7861534a.19653825.19653825 0 0 0 .1389525.057588h1.5723062a.19653825.19653825 0 0 0 .1965378-.1965392v-1.5723105a.19653825.19653825 0 0 0 -.1965378-.1965379zm-.1965382.7861524a.1965383.1965383 0 0 1 0 .3930764.1965383.1965383 0 0 1 0-.3930764z" fill="#8eef97" stroke-width=".196538"/><path d="m8.0000001 9.991345v2l3.9999999.01731v-2.000004z"/><path d="m4.9826494 10.025957a.19653825.19653825 0 0 0 -.1389525.05759l-.7861531.786154a.19653825.19653825 0 0 0 0 .277905l.7861531.786153a.19653825.19653825 0 0 0 .1389525.05759h1.5723062a.19653825.19653825 0 0 0 .1965378-.196543v-1.572311a.19653825.19653825 0 0 0 -.1965378-.196538zm-.1965382.786153a.1965383.1965383 0 0 1 0 .393076.1965383.1965383 0 0 1 0-.393076z" fill="#8eef97" stroke-width=".196538"/></g></svg>