<svg height="16" viewBox="0 0 16 16" width="16" xmlns="http://www.w3.org/2000/svg"><path d="m5.9785156 3a1 1 0 0 0 -.7070312.2929688l-4 4a1 1 0 0 0 0 1.4140624l4 3.9999998a1 1 0 0 0 .7070312.292969h8.0000004a1 1 0 0 0 1-1v-8a1 1 0 0 0 -1-1zm4.9863284 1.5800781v.0097657l.027344 2.359375 2.152343-.6992188.091797-.03125.007813-.0019531.552734 1.6640625-2.244141.7578125 1.386719 1.9062501.005859.007812-1.412109 1.039063-.003906-.009766-1.410156-1.8886716-1.384766 1.9062496-.0058594.009766-1.4238281-1.021484.0058594-.009766.0410156-.058594 1.3222656-1.8652341-2.2421875-.7285157-.0097656-.0019531.53125-1.6699219.0097656.0039063 2.2519532.703125-.0019532-2.359375v-.0097656zm-5.9863284 2.4199219a1 1 0 0 1 0 2 1 1 0 0 1 0-2z" fill="#8eef97"/></svg>