<svg height="100" viewBox="0 0 100 100" width="100" xmlns="http://www.w3.org/2000/svg" xmlns:xlink="http://www.w3.org/1999/xlink"><filter id="a" color-interpolation-filters="sRGB"><feFlood flood-opacity=".4" in="SourceGraphic" result="flood"/><feGaussianBlur in="SourceGraphic" result="blur" stdDeviation=".1"/><feOffset dx="0" dy="0" in="blur" result="offset"/><feComposite in="flood" in2="offset" operator="out" result="comp1"/><feComposite in="comp1" in2="SourceGraphic" operator="in" result="comp2"/></filter><filter id="b" color-interpolation-filters="sRGB" height="1.265598" width="1.189667" x="-.09481" y="-.132799"><feFlood flood-opacity=".207843" in="SourceGraphic" result="flood"/><feGaussianBlur in="SourceGraphic" result="blur" stdDeviation=".1"/><feOffset dx="0" dy="0" in="blur" result="offset"/><feComposite in="flood" in2="offset" operator="in" result="comp1"/><feComposite in="SourceGraphic" in2="comp1" operator="over" result="comp2"/></filter><filter id="c" color-interpolation-filters="sRGB" height="1.265591" width="1.05975" x="-.029867" y="-.132795"><feFlood flood-opacity=".207843" in="SourceGraphic" result="flood"/><feGaussianBlur in="SourceGraphic" result="blur" stdDeviation=".1"/><feOffset dx="0" dy="0" in="blur" result="offset"/><feComposite in="flood" in2="offset" operator="in" result="comp1"/><feComposite in="SourceGraphic" in2="comp1" operator="over" result="comp2"/></filter><filter id="d" color-interpolation-filters="sRGB" height="1.260162" width="1.074479" x="-.03724" y="-.1301"><feFlood flood-opacity=".207843" in="SourceGraphic" result="flood"/><feGaussianBlur in="SourceGraphic" result="blur" stdDeviation=".1"/><feOffset dx="0" dy="0" in="blur" result="offset"/><feComposite in="flood" in2="offset" operator="in" result="comp1"/><feComposite in="SourceGraphic" in2="comp1" operator="over" result="comp2"/></filter><filter id="e" color-interpolation-filters="sRGB" height="1.078133" width="1.021022" x="-.010681" y="-.040901"><feFlood flood-opacity=".207843" in="SourceGraphic" result="flood"/><feGaussianBlur in="SourceGraphic" result="blur" stdDeviation=".1"/><feOffset dx="0" dy="0" in="blur" result="offset"/><feComposite in="flood" in2="offset" operator="in" result="comp1"/><feComposite in="SourceGraphic" in2="comp1" operator="over" result="comp2"/></filter><filter id="f" color-interpolation-filters="sRGB" height="1.265598" width="1.189667" x="-.09481" y="-.132799"><feFlood flood-opacity=".207843" in="SourceGraphic" result="flood"/><feGaussianBlur in="SourceGraphic" result="blur" stdDeviation=".1"/><feOffset dx="0" dy="0" in="blur" result="offset"/><feComposite in="flood" in2="offset" operator="in" result="comp1"/><feComposite in="SourceGraphic" in2="comp1" operator="over" result="comp2"/></filter><filter id="g" color-interpolation-filters="sRGB" height="1.905936" width="1.70419" x="-.352095" y="-.467139"><feFlood flood-opacity=".207843" in="SourceGraphic" result="flood"/><feGaussianBlur in="SourceGraphic" result="blur" stdDeviation=".1"/><feOffset dx="0" dy="0" in="blur" result="offset"/><feComposite in="flood" in2="offset" operator="in" result="comp1"/><feComposite in="SourceGraphic" in2="comp1" operator="over" result="comp2"/></filter><filter id="h" color-interpolation-filters="sRGB" height="1.905936" width="1.70419" x="-.352095" y="-.438797"><feFlood flood-opacity=".207843" in="SourceGraphic" result="flood"/><feGaussianBlur in="SourceGraphic" result="blur" stdDeviation=".1"/><feOffset dx="0" dy="0" in="blur" result="offset"/><feComposite in="flood" in2="offset" operator="in" result="comp1"/><feComposite in="SourceGraphic" in2="comp1" operator="over" result="comp2"/></filter><filter id="i" color-interpolation-filters="sRGB" height="1.258767" width="1.258767" x="-.129383" y="-.129383"><feFlood flood-opacity=".207843" in="SourceGraphic" result="flood"/><feGaussianBlur in="SourceGraphic" result="blur" stdDeviation=".1"/><feOffset dx="0" dy="0" in="blur" result="offset"/><feComposite in="flood" in2="offset" operator="in" result="comp1"/><feComposite in="SourceGraphic" in2="comp1" operator="over" result="comp2"/></filter><filter id="j" color-interpolation-filters="sRGB" height="1.446918" width="1.378201" x="-.189102" y="-.223462"><feFlood flood-opacity=".207843" in="SourceGraphic" result="flood"/><feGaussianBlur in="SourceGraphic" result="blur" stdDeviation=".1"/><feOffset dx="0" dy="0" in="blur" result="offset"/><feComposite in="flood" in2="offset" operator="in" result="comp1"/><feComposite in="SourceGraphic" in2="comp1" operator="over" result="comp2"/></filter><filter id="k" color-interpolation-filters="sRGB" height="1.055702" width="1.053876" x="-.025072" y="-.027844"><feFlood flood-opacity=".207843" in="SourceGraphic" result="flood"/><feGaussianBlur in="SourceGraphic" result="blur" stdDeviation=".1"/><feOffset dx="0" dy="0" in="blur" result="offset"/><feComposite in="flood" in2="offset" operator="in" result="comp1"/><feComposite in="SourceGraphic" in2="comp1" operator="over" result="comp2"/></filter><g fill="#3e7e44"><path d="m37.584396 33.981842h44.796307v10.852977h-44.796307z"/><path d="m15.611707 12.19999h10.715705v10.852977h-10.715705z"/><path d="m57.985546 55.680447h10.715705v10.852977h-10.715705z"/><path d="m15.611707 33.981842h10.715705v10.852977h-10.715705z"/></g><g fill="#8eef97" stroke="#fff" transform="matrix(7.1428571 0 0 7.1428571 -7.142857 -7.142857)"><g stroke-width=".042"><path d="m13.62598 8.8644021-.767956.768111-.219415-.219416-.219417.219416.438832.4388309.493686-.4936849.493686-.493686z" fill="#3e7e44" filter="url(#j)"/><path d="m12.173087 8.5462971c-.1714 0-.310348.138947-.310348.310347v1.3965639c0 .171401.138948.310348.310348.310348h1.396565c.171401 0 .310348-.138947.310348-.310348v-.7758679l-.310348.310347v.4655209h-1.396565v-1.3965639h1.086217l.310348-.310347z" filter="url(#i)"/><text fill="none" fill-opacity=".909804" stroke-linecap="round" x="9.132514" y="9.530083"><tspan stroke="#fff" stroke-width=".042" x="9.132514" y="9.530083"/></text><path d="m13.086922 6.6772594.396539.5948085.396539-.5948085z" fill="#3e7e44" filter="url(#h)"/><path d="m13.483461 5.6859124-.396539.5948082h.793078l-.198269-.2974041z" fill="#3e7e44" filter="url(#g)"/><path d="m6.2765391 5.5116824c-.2190066.0007962-.396539.1775364-.396539.3965388v1.1896157c0 .219009.1775374.397336.396539.396539l6.6121139-.02404v-.396538-1.1896161-.3965388zm0 .3965388 6.2155749-.024039v1.1896161l-6.2155749.02404z" filter="url(#d)"/></g><g fill="#8eef97" filter="url(#k)" stroke-width=".3" transform="matrix(.14 0 0 .14 6.84115 11.424353)"><path d="m3.5 2v3.133l-1.445-.965-1.11 1.664 3 2c.3360369.2241995.7739631.2241995 1.11 0l3-2-1.11-1.664-1.445.965v-3.133zm-.5 8c-.8284271 0-1.5.671573-1.5 1.5v1.5h-1v2h8v-2h-1v-1.5c0-.828427-.6715729-1.5-1.5-1.5z"/><path d="m13.5 14.94756v-11.0804099l1.445.965 1.11-1.664-3-2c-.336037-.22419898-.773963-.22419898-1.11 0l-1.5 1-1.5 1 1.11 1.664.7225-.4825.7225-.4825v11.0804099z" fill="#3e7e44"/></g><g fill="#8eef97" filter="url(#e)" stroke-width=".190649" transform="matrix(.22029957 0 0 .22029957 10.560106 1.595873)"><path d="m-20.244281 3.9935326v5h2v-5zm-1 7.0000004s.895431 1.999778 2 2l32.244281.006467c1.104569.000222 2-.895431 2-2z" stroke-width=".190649"/><path d="m11.636667 2.0000001-8.2716606 8.2733349-2.363334-2.3633325-2.3633321 2.3633325 4.7266661 4.726665 10.6349936-10.634996z" fill="#3e7e44" stroke-width=".495689" transform="matrix(.38461539 0 0 .38461539 9.615385 3.230769)"/></g><path d="m3.1026568 2.4943858a.19653737.19653737 0 0 0 -.1389575.05758l-.7861495.7861495a.19653737.19653737 0 0 0 0 .2779161l.7861495.7861493a.19653737.19653737 0 0 0 .1389575.057579h1.5722989a.19653737.19653737 0 0 0 .1965374-.196538v-1.5722984a.19653737.19653737 0 0 0 -.1965374-.1965375zm.9799999.3105443v.00193l.00538.4637023.4230165-.1374232.018043-.00615.00153-.0003832.1086332.3270505-.4410576.1489385.272542.3746493.00116.00153-.2775321.2042147-.0007664-.00193-.2771485-.3711946-.2721581.3746492-.00115.00193-.2798355-.2007597.00115-.00193.00806-.011511.2598747-.3665882-.4406737-.1431807-.00193-.0003832.104411-.3282019.00193.0007684.442593.1381911-.0003832-.4637054v-.00193zm-1.1765372.4756053a.1965374.1965374 0 0 1 0 .3930748.1965374.1965374 0 0 1 0-.3930748z" fill="#8eef97" filter="url(#f)" stroke-width=".042"/><path d="m3.1026568 5.5083238a.19653737.19653737 0 0 0 -.1389575.05758l-.7861495.7861495a.19653737.19653737 0 0 0 0 .2779161l.7861495.7861493a.19653737.19653737 0 0 0 .1389575.057579h1.5722989a.19653737.19653737 0 0 0 .1965374-.196538v-1.5722984a.19653737.19653737 0 0 0 -.1965374-.1965375zm.9799999.3105443v.00193l.00538.4637023.4230165-.1374232.018043-.00615.00153-.0003832.1086332.3270505-.4410576.1489385.272542.3746493.00116.00153-.2775321.2042147-.0007664-.00193-.2771485-.3711946-.2721581.3746492-.00115.00193-.2798355-.2007597.00115-.00193.00806-.011511.2598747-.3665882-.4406737-.1431807-.00193-.0003832.104411-.3282019.00193.0007684.442593.1381911-.0003832-.4637053v-.00193zm-1.1765372.4756053a.1965374.1965374 0 0 1 0 .3930748.1965374.1965374 0 0 1 0-.3930748z" fill="#8eef97" filter="url(#b)" stroke-width=".042"/><path d="m3.1026568 8.5223126c-.052122.0000082-.1021059.02072-.1389575.05758l-.7861495.7861495c-.076733.076749-.076733.2011669 0 .2779161l.7861495.7861488c.036852.03686.086836.05757.1389575.05758l7.5550382-.000057c.108545 0 .196538-.08799.196537-.196539v-1.5722984c0-.1085445-.08799-.1965373-.196537-.1965375zm6.9627392.3104868v.00193l.0054.4637023.423017-.1374232.01804-.00615.0015-.0003832.108633.3270505-.441058.1489385.272542.3746497.0012.0015-.277532.204214-.000766-.0019-.2771494-.3711943-.2721581.3746493-.00115.0019-.2798355-.20076.00115-.0019.00806-.01151.2598747-.366588-.4406737-.1431807-.00193-.0003832.104411-.3282019.00193.0007684.442593.1381911-.0003832-.4637053v-.00193zm-7.1592765.4756628c.2620497 0 .2620497.3930748 0 .3930748s-.2620497-.3930748 0-.3930748z" fill="#8eef97" filter="url(#c)" stroke-width=".042"/><text fill="none" fill-opacity=".909804" filter="url(#a)" stroke-linecap="round" stroke-width=".042" x="-.982718" y="6.326832"><tspan stroke="#fff" stroke-width=".042" x="-.982718" y="6.326832"/></text></g></svg>